<?xml version="1.0" encoding="utf-8"?>
<!-- Generator: Adobe Illustrator 21.1.0, SVG Export Plug-In . SVG Version: 6.00 Build 0)  -->
<svg version="1.1" id="Layer_1" xmlns="http://www.w3.org/2000/svg" xmlns:xlink="http://www.w3.org/1999/xlink" x="0px" y="0px"
	 viewBox="0 0 244.1 161.8" style="enable-background:new 0 0 244.1 161.8;" xml:space="preserve">
<style type="text/css">
	.st0{fill:#F79633;}
	.st1{fill:#263868;}
	.st2{fill-rule:evenodd;clip-rule:evenodd;fill:#F79633;}
	.st3{fill-rule:evenodd;clip-rule:evenodd;fill:#263868;}
	.st4{font-family:'Arial-BoldMT';}
	.st5{font-size:15.3442px;}
	.st6{font-size:16.0603px;}
</style>
<path class="st0" d="M30.3,121.9l0-5.8l-5.1-0.1l-2.1,0v-14.8l6.8,0c0-17.7-14-22.9-29.6-23.2v-3.2l32.2-0.4
	c1.2-2.4,4.3-8.1,10.3-14.2c6.4-6.4,16-13.1,29.9-16.6c0-0.6,0-1.1,0-1.5c0-0.6,0-1.6-0.1-2.1c-0.1-0.4-0.2-0.8-0.3-1.1
	c-0.1-0.3-0.3-0.6-0.6-0.9v0c-0.3-0.3-0.7-0.6-1.2-0.9c-0.5-0.3-1-0.5-1.7-0.8c-0.7-0.3-1.6-0.5-2.6-0.7c-1-0.2-2.1-0.4-3.3-0.5l0,0
	c-1.4-0.2-2.2-0.5-2.6-0.7c-1.4-0.8-1.1-1.5,0.5-2c0.6-0.2,1.5-0.3,2.6-0.5c4.2-0.5,11.7-0.8,14.5-0.9c0.2-0.3,0.4-0.5,0.7-0.8
	c0.4-0.4,0.8-0.7,1.2-1.1h0c0.6-0.4,1.2-0.9,1.9-1.3c0.8-0.5,1.6-0.9,2.3-1.2l0.1,0l0,0c1.3-0.6,2.4-0.9,3.4-1.2
	c0.8-0.2,1.5-0.3,2.3-0.5c0-1.2,0-14.4,0-15.7c0-0.9,0-4.6,0-5.4c-0.2-5.1,3.6-5.5,3.7,0c0,5.2,0,1,0.1,5.3c0,1.4,0,14.7,0.1,15.7
	c0.8,0.1,1.5,0.3,2.3,0.5c1,0.3,2.1,0.6,3.4,1.2l0,0l0.1,0c0.8,0.4,1.6,0.8,2.3,1.2c0.7,0.4,1.3,0.8,1.9,1.3
	c0.4,0.3,0.9,0.7,1.2,1.1c0.3,0.3,0.5,0.5,0.7,0.8c2.8,0.1,9.9,0.3,14.2,0.8c1,0.1,1.9,0.3,2.5,0.4c1.1,0.3,1.7,0.8,1.4,1.5v0
	c-0.1,0.2-0.2,0.3-0.3,0.4l0,0c-0.2,0.2-0.6,0.3-1.1,0.5c-0.4,0.1-1,0.2-1.7,0.4l0,0c-1.3,0.1-2.4,0.3-3.3,0.5
	c-1,0.2-1.8,0.5-2.6,0.7c-0.7,0.3-1.2,0.5-1.7,0.8c-0.5,0.3-0.9,0.6-1.2,0.9v0c-0.3,0.3-0.5,0.6-0.6,0.9c-0.2,0.3-0.3,0.7-0.3,1.1
	c-0.1,0.5-0.1,1.5-0.1,2.1c0,0.4,0,0.9,0,1.5c3.3,0.9,8.1,2.9,10.6,4c1.7,1,1.8,2.5-0.1,2c-0.2-0.1-0.5-0.1-0.7-0.1
	c-3.9-0.7-7.4-0.6-11.1-0.5c-1.3,0-2.6,0.1-4,0.1h-0.8l-0.1-0.7c-0.6-7.6,4.2-12.1,7.3-14c-0.2,0-0.3,0-0.5,0
	c-1.6,0.1-3.9,0.3-7.1,0.5c-0.5,0-0.9,0-1.4,0l-0.5-1.1h0c-0.7-1.5-2.3-2.8-4.1-3.7c-2.1-1.1-4.6-1.7-6.7-1.7
	c-2.1,0-4.6,0.6-6.7,1.7c-1.8,0.9-3.3,2.2-4.1,3.7l-0.5,1.1c-0.5,0-0.9,0-1.4,0c-3.2-0.2-5.5-0.3-7.1-0.5c-0.2,0-0.4,0-0.6-0.1
	c3.1,1.9,7.9,6.4,7.3,14L78.6,49h-0.8c-18.1,0-34.7,13.7-41.3,30.4H26.3h-0.1c6,2.9,9.6,18.4,9,25.6h-7.5v5.8h7.5l-0.1,11.9h-4.8
	L30.3,121.9z"/>
<path class="st1" d="M47.9,99.9L62,98.6c0.9,4.1,2.6,7,5.1,9c2.6,1.9,6.1,2.9,10.5,2.9c4.6,0,8.1-0.8,10.5-2.5
	c2.4-1.7,3.5-3.7,3.5-5.9c0-1.5-0.5-2.7-1.5-3.7c-1-1-2.7-1.9-5.2-2.7c-1.7-0.5-5.5-1.4-11.5-2.7c-1.4-0.3-2.7-0.6-3.9-0.9
	c-3-6.8,7.1-6.3,6.3-11.5c1.2,0.3,2.5,0.6,4,0.9c7,1.4,12.2,2.9,15.6,4.4c3.4,1.5,6,3.6,7.9,6.3c1.9,2.7,2.9,5.9,2.9,9.8
	c0,3.5-1.1,6.9-3.4,9.9c-2.3,3.1-5.5,5.4-9.7,6.9c-4.2,1.5-9.4,2.3-15.6,2.3c-9.1,0-16-1.8-20.9-5.4C51.7,112,48.8,106.7,47.9,99.9
	 M118.4,119.9V58.1h53v10.4h-38.5v13.7h35.8v10.4h-35.8v16.7h39.9v10.4H118.4z M185.2,58.1h14.5v33.4c0,5.3,0.2,8.7,0.5,10.3
	c0.6,2.5,2.1,4.6,4.4,6.1c2.3,1.5,6.5,2.3,10.5,2.3c4.1,0,8.1-0.7,10.2-2.2c2.1-1.5,3.3-3.2,3.7-5.3c0.4-2.1,0.6-5.6,0.6-10.5V58.1
	h14.5v32.5c0,7.4-0.4,12.7-1.2,15.7c-0.8,3.1-2.2,5.6-4.3,7.8c-2.1,2.1-4.9,3.8-8.4,5c-3.5,1.3-9.1,1.9-14.7,1.9
	c-6.8,0-13-0.7-16.5-2c-3.5-1.4-6.3-3.1-8.4-5.3c-2.1-2.2-3.4-4.5-4-6.9c-1-3.5-1.4-8.8-1.4-15.7V58.1z"/>
<path class="st2" d="M69.5,92c-3-6.8,7.1-6.3,6.3-11.5c-4.7-1.1-7.8-2.2-9.3-3.3c-1.4-1-2.2-2.3-2.2-3.7c0-1.6,0.8-2.9,2.3-3.9
	c2.4-1.5,5.6-2.2,9.8-2.2c4,0,7.1,0.7,9.1,2.1c2,1.4,3.3,3.7,4,6.9l14.5-0.4c-0.2-5.7-2.6-10.3-7.1-13.7C92.3,58.7,85.6,57,76.6,57
	c-5.5,0-10.2,0.7-14.1,2.2c-3.9,1.4-6.9,3.5-8.9,6.3c-2.1,2.7-3.1,5.7-3.1,8.8c0,4.9,2.2,9.1,6.6,12.5C59.7,88.7,63.8,90.5,69.5,92"
	/>
<path class="st3" d="M213.7,81.5c6.4-1.8,11.6-1.8,12.1-0.3c0.5,1.6-4.1,4-10.5,5.9c-6.4,1.8-11.7,2.2-12.1,0.7
	C202.9,86.3,207.4,83.3,213.7,81.5 M213.6,81.1c6.9-2,12.9-2.1,13.5,0c0.6,2.1-4.5,5.4-11.4,7.4c-6.9,2-12.9,1.9-13.5-0.2
	C201.6,86.2,206.7,83.1,213.6,81.1"/>
<path class="st3" d="M217.9,85.8c2.1-6.3,2.3-11.6,0.8-12.1c-1.5-0.5-4.2,3.9-6.3,10.2c-2.1,6.3-2.7,11.6-1.2,12
	C212.5,96.4,215.7,92.1,217.9,85.8 M218.2,86c2.3-6.8,2.6-12.8,0.5-13.5c-2.1-0.7-5.6,4.2-7.9,11c-2.3,6.8-2.5,12.8-0.4,13.5
	C212.6,97.7,216,92.7,218.2,86"/>
<path class="st3" d="M212.1,87c-4.5-4.8-6.9-9.5-5.7-10.6c1.2-1.1,5.5,1.8,10,6.6c4.5,4.8,7.3,9.4,6.1,10.4
	C221.4,94.5,216.7,91.9,212.1,87 M211.8,87.3c-4.9-5.2-7.7-10.6-6.1-12c1.6-1.5,6.8,1.5,11.7,6.8c4.9,5.2,7.6,10.7,6,12.1
	C221.9,95.7,216.7,92.6,211.8,87.3"/>
<path class="st3" d="M220.5,76.3c-0.5-0.4-1.2-0.3-1.6,0.2c-0.4,0.5-0.3,1.2,0.2,1.6c0.5,0.4,1.2,0.3,1.6-0.2
	C221,77.4,220.9,76.7,220.5,76.3"/>
<path class="st3" d="M204.2,84.5c0.6,0,1.1,0.5,1.1,1.1s-0.5,1.1-1.1,1.1c-0.6,0-1.1-0.5-1.1-1.1S203.6,84.5,204.2,84.5"/>
<path class="st3" d="M214.6,83c0.9,0,1.6,0.7,1.6,1.6s-0.7,1.6-1.6,1.6c-0.9,0-1.6-0.7-1.6-1.6S213.7,83,214.6,83"/>
<path class="st3" d="M218.8,91.5c0.7,0,1.2,0.5,1.2,1.2c0,0.7-0.5,1.2-1.2,1.2c-0.7,0-1.2-0.5-1.2-1.2
	C217.6,92.1,218.1,91.5,218.8,91.5"/>
<text transform="matrix(1 0 0 1.0722 30.0753 142.8936)" class="st1 st4 st5">G</text>
<text transform="matrix(1 0 0 1.0722 45.1588 142.8936)" class="st1 st4 st5">E</text>
<text transform="matrix(1 0 0 1.0722 58.5392 142.8936)" class="st1 st4 st5">O</text>
<text transform="matrix(1 0 0 1.0722 73.6222 142.8936)" class="st1 st4 st5">R</text>
<text transform="matrix(1 0 0 1.0722 87.8468 142.8936)" class="st1 st4 st5">G</text>
<text transform="matrix(1 0 0 1.0722 102.9298 142.8936)" class="st1 st4 st5">I</text>
<text transform="matrix(1 0 0 1.0722 110.3409 142.8936)" class="st1 st4 st5">A</text>
<text transform="matrix(1 0 0 1.0722 124.5655 142.8936)" class="st1 st4 st5">N  </text>
<text transform="matrix(1 0 0 1.0722 147.3204 142.8936)" class="st1 st4 st5">N</text>
<text transform="matrix(1 0 0 1.0722 161.5445 142.8936)" class="st1 st4 st5">A</text>
<text transform="matrix(1 0 0 1.0722 174.6329 142.8936)" class="st1 st4 st5">T</text>
<text transform="matrix(1 0 0 1.0722 187.1539 142.8936)" class="st1 st4 st5">I</text>
<text transform="matrix(1 0 0 1.0722 194.5655 142.8936)" class="st1 st4 st5">O</text>
<text transform="matrix(1 0 0 1.0722 209.6485 142.8936)" class="st1 st4 st5">N</text>
<text transform="matrix(1 0 0 1.0722 223.8722 142.8936)" class="st1 st4 st5">A</text>
<text transform="matrix(1 0 0 1.0722 238.0968 142.8936)" class="st1 st4 st5">L</text>
<text transform="matrix(1 0 0 1.0722 30.0191 161.8311)" class="st1 st4 st6">U</text>
<text transform="matrix(1 0 0 1.0722 48.0064 161.8311)" class="st1 st4 st6">N</text>
<text transform="matrix(1 0 0 1.0722 65.9942 161.8311)" class="st1 st4 st6">I</text>
<text transform="matrix(1 0 0 1.0722 76.8507 161.8311)" class="st1 st4 st6">V</text>
<text transform="matrix(1 0 0 1.0722 93.9552 161.8311)" class="st1 st4 st6">E</text>
<text transform="matrix(1 0 0 1.0722 111.0587 161.8311)" class="st1 st4 st6">R</text>
<text transform="matrix(1 0 0 1.0722 129.047 161.8311)" class="st1 st4 st6">S</text>
<text transform="matrix(1 0 0 1.0722 146.1505 161.8311)" class="st1 st4 st6">I</text>
<text transform="matrix(1 0 0 1.0722 157.0074 161.8311)" class="st1 st4 st6">T</text>
<text transform="matrix(1 0 0 1.0722 173.212 161.8311)" class="st1 st4 st6">Y</text>
<text transform="matrix(1 0 0 1.0722 183.6353 161.8311)" class="st1 st4 st6">  </text>
<text transform="matrix(1 0 0 1.0722 198.9405 161.8311)" class="st1 st4 st6">S</text>
<text transform="matrix(1 0 0 1.0722 216.045 161.8311)" class="st1 st4 st6">E</text>
<text transform="matrix(1 0 0 1.0722 233.149 161.8311)" class="st1 st4 st6">U</text>
</svg>
